<svg xmlns="http://www.w3.org/2000/svg" xmlns:xlink="http://www.w3.org/1999/xlink" version="1.1" id="Layer_1" x="0px" y="0px" width="100%" viewBox="0 0 512 512" enable-background="new 0 0 512 512" xml:space="preserve">
<path fill="none" opacity="1.000000" stroke="none" d=" M1.000001,278.000000   C1.000000,185.699783 1.000000,93.399559 1.000000,1.049672   C171.572342,1.049672 342.144684,1.049672 513.000000,1.049672   C513.000000,137.689865 513.000000,274.379913 512.657227,411.385773   C507.560822,395.511139 497.820557,383.645691 481.057648,379.842499   C472.054626,377.799866 462.430359,378.495178 453.041687,377.516846   C452.938965,374.728210 452.880951,372.377777 452.897156,369.562805   C452.980927,367.432800 452.998383,365.767273 452.998810,364.101776   C453.001892,351.808716 453.000824,351.808777 440.751862,348.993713   C426.095917,345.625488 415.214050,332.691467 413.942596,317.643402   C413.211884,308.994934 411.973999,300.387238 410.876221,291.772430   C409.635742,282.037567 408.298798,272.315002 406.999359,262.587708   C405.807953,253.669083 404.572021,244.756180 403.428223,235.831482   C402.519104,228.737686 401.719360,221.629883 400.811798,214.031998   C404.191925,214.031998 406.949005,214.031998 409.514740,214.031998   C415.532898,201.933426 421.338989,190.261200 427.434937,178.006302   C412.475616,178.006302 398.324219,177.580002 384.218842,178.199799   C377.887115,178.477997 371.010742,179.687302 367.460205,186.962067   C361.014160,186.955551 355.028412,186.919525 348.866791,186.551025   C345.635376,173.673584 340.921661,169.996490 327.865753,170.006653   C322.888367,170.010529 317.910950,170.053436 312.470093,170.045959   C286.704590,169.996597 261.402527,169.979813 236.057922,169.498856   C235.992371,149.368103 235.969360,129.701508 235.986923,109.565598   C236.027512,97.887482 236.027512,86.678696 236.027512,74.786415   C242.022415,74.786415 247.339661,74.786415 253.367126,74.786415   C252.405930,73.292503 251.975784,72.632202 251.553787,71.966713   C246.728943,64.357597 241.905334,56.747692 237.541595,49.081116   C248.905518,49.024246 259.809265,49.024246 270.623749,49.024246   C270.623749,42.617371 270.623749,36.904198 270.623749,30.934860   C258.304504,30.934860 246.360184,30.934860 234.793488,30.934860   C233.452393,27.917429 232.453003,25.168842 231.064743,22.633152   C225.480606,12.433513 216.436707,7.345715 205.313034,5.123677   C195.164642,3.096463 180.279526,9.250727 173.782074,17.323364   C166.206833,26.735054 164.944275,37.440342 165.169891,49.248325   C165.073166,69.825684 165.060669,89.926834 165.027634,110.495163   C165.004730,122.752190 164.985901,134.542068 165.003143,146.331894   C165.048828,177.546478 165.110092,208.761017 165.232849,240.373688   C165.528992,241.366989 165.935226,241.955246 165.958893,242.558487   C166.257690,250.174698 169.090393,256.637756 173.910934,262.574158   C178.481796,268.203064 184.811630,270.782837 190.429321,273.968323   C187.822159,273.995392 185.667938,274.019653 183.514252,273.996094   C175.325409,273.906494 166.649384,279.178345 166.006119,289.239838   C165.587753,295.783600 165.312424,302.336517 164.508240,308.932800   C156.034653,308.995300 148.025864,309.010284 140.011292,308.555084   C140.003479,297.945099 139.811554,287.800171 140.085587,277.667847   C140.208542,273.121918 139.591431,269.174683 136.449158,266.007568   C139.192352,266.210297 140.028458,265.291687 140.011429,262.862701   C139.876099,243.570053 139.862717,224.276550 139.890686,204.522476   C139.923065,198.710480 139.876663,193.359329 139.891876,187.550873   C139.917099,183.144989 139.880707,179.196396 139.906464,174.763123   C139.953506,138.150131 139.938400,102.021812 139.940582,65.431824   C139.957855,48.073696 139.957855,31.177225 139.957855,14.012125   C133.746399,14.012125 128.248535,13.718516 122.797943,14.099948   C117.961533,14.438399 112.757149,14.575036 108.455460,16.475945   C98.619499,20.822443 89.276848,20.623846 79.633156,16.362169   C76.775856,15.099486 73.595268,14.568346 70.181030,13.592914   C70.181030,31.744684 70.181030,49.018566 70.181030,66.551704   C73.652687,67.698334 77.263664,68.636543 80.669044,70.064926   C89.748207,73.873146 98.609428,73.751122 107.796974,70.107773   C112.238518,68.346474 117.240982,67.999641 121.993774,67.480011   C121.990677,98.935402 121.983284,129.923157 121.510071,160.947968   C89.920906,160.990051 58.797417,160.945587 27.674360,161.041321   C21.332960,161.060822 16.082050,163.222000 12.316930,168.982452   C8.364167,175.029984 9.002158,181.482178 9.106882,188.482788   C9.089124,194.286987 9.133883,199.628723 9.104261,205.435699   C9.019634,224.585419 9.016708,243.269928 8.989180,261.954407   C8.986006,264.108093 8.594090,266.439117 11.759092,266.413391   C8.035091,270.443573 4.517546,274.221771 1.000001,278.000000  z"/>
<path fill="none" opacity="1.000000" stroke="none" d=" M513.000000,422.000000   C513.000000,452.317200 513.000000,482.634399 513.000000,512.975830   C342.440247,512.975830 171.880493,512.975830 1.000000,512.975830   C1.000000,439.979431 1.000000,366.958374 1.340787,293.496002   C5.778324,297.065887 9.295627,301.574371 15.453782,303.099487   C26.057465,305.725555 36.483154,309.062805 47.017471,311.979004   C54.661713,314.095184 62.360714,316.013580 70.020615,318.485657   C69.965912,324.280945 69.925880,329.610657 69.433426,334.965729   C66.670341,334.993958 64.359581,334.983185 62.049068,335.002380   C56.226807,335.050812 54.010548,336.979614 52.493839,342.936707   C40.781372,342.983704 29.532549,342.983704 18.155970,342.983704   C18.155970,359.408142 18.155970,375.189789 17.999048,391.303833   C8.512661,409.350769 8.623558,428.447113 9.176353,448.115204   C24.083775,448.115204 38.530540,448.115204 52.986839,448.572906   C52.997429,453.193573 52.801315,457.367706 53.035557,461.517487   C53.819530,475.406372 59.776272,487.210419 69.955254,496.159332   C83.206902,507.809692 99.133812,511.736603 116.559311,507.978058   C134.782532,504.047424 147.278595,493.256470 154.065079,475.855591   C157.571777,466.864227 158.680786,457.643921 157.487732,448.067474   C166.290466,448.064941 174.628159,448.110107 183.021698,448.517883   C183.400894,449.820984 183.734116,450.758270 184.046127,451.702545   C190.254776,470.492493 207.553558,482.999603 227.340103,482.999878   C259.318115,483.000366 291.296143,483.003510 323.274170,482.989899   C324.932037,482.989197 326.637665,483.068481 328.240356,482.729187   C347.606354,478.629272 360.478516,467.382660 366.473663,448.094574   C369.281067,447.963013 371.649536,447.898041 374.480164,447.903046   C380.618103,447.921906 386.293884,447.870758 392.409546,447.893799   C395.225464,448.017151 397.601440,448.066376 399.986755,448.573303   C399.997101,452.690948 400.021881,456.351074 399.994354,460.010834   C399.932770,468.201355 402.356750,475.903778 406.452332,482.681763   C418.147797,502.037384 438.693970,512.242432 461.878998,508.092407   C487.636292,503.481934 503.968689,482.445160 504.905151,458.004639   C505.422455,444.502380 500.509491,432.574310 492.490997,422.065369   C499.637207,422.012573 506.318604,422.006287 513.000000,422.000000  z"/>
<path fill="#DEDEDE" opacity="1.000000" stroke="none" d=" M70.035301,318.020142   C62.360714,316.013580 54.661713,314.095184 47.017471,311.979004   C36.483154,309.062805 26.057465,305.725555 15.453782,303.099487   C9.295627,301.574371 5.778324,297.065887 1.340787,293.027344   C1.000000,292.555542 1.000000,292.111115 1.168220,291.242645   C1.224293,290.545746 1.112146,290.272888 1.000000,290.000000   C1.000000,286.307098 1.000000,282.614166 1.000001,278.460632   C4.517546,274.221771 8.035091,270.443573 12.226215,266.349823   C34.004925,266.007172 55.110065,265.953369 76.215187,265.960602   C96.152664,265.967438 116.090134,266.038452 136.027603,266.081238   C139.591431,269.174683 140.208542,273.121918 140.085587,277.667847   C139.811554,287.800171 140.003479,297.945099 139.939667,308.911133   C137.794159,316.132629 135.520615,317.849579 128.662720,317.877014   C109.120369,317.955109 89.577789,317.976471 70.035301,318.020142  M39.500320,283.999695   C33.046234,283.999695 26.592150,283.999695 20.138065,283.999695   C31.624931,288.328400 43.245075,291.505829 54.729080,295.116302   C65.229202,298.417450 75.729988,300.802826 86.889877,300.100189   C95.008018,299.589050 103.184227,300.000275 111.334549,300.000275   C122.072060,300.000275 121.891388,299.996918 122.092758,289.269012   C122.169296,285.191681 121.080444,283.873779 116.846352,283.905396   C91.398819,284.095398 65.949142,283.999695 39.500320,283.999695  z"/>
<path fill="#F05D46" opacity="1.000000" stroke="none" d=" M513.000000,421.545898   C506.318604,422.006287 499.637207,422.012573 492.023834,422.022369   C488.594086,422.016846 486.090790,422.112701 483.599396,421.982117   C464.889313,421.001160 447.953125,425.510071 432.383453,436.413666   C426.024323,440.867065 418.057983,443.125702 410.655853,445.944275   C407.306427,447.219635 403.549500,447.424896 399.977448,448.115601   C397.601440,448.066376 395.225464,448.017151 392.415100,447.437225   C391.987061,440.097168 391.979401,433.287750 392.002533,426.478455   C392.052521,411.759094 406.111816,393.320099 420.567963,390.075317   C428.386780,388.320374 436.501038,387.663696 444.523376,387.099945   C451.278290,386.625275 451.279633,386.998871 452.061035,380.094574   C452.145020,379.352234 452.732483,378.666840 453.086426,377.955078   C462.430359,378.495178 472.054626,377.799866 481.057648,379.842499   C497.820557,383.645691 507.560822,395.511139 512.657227,411.850769   C513.000000,415.030609 513.000000,418.061188 513.000000,421.545898  z"/>
<path fill="none" opacity="1.000000" stroke="none" d=" M1.000000,290.250000   C1.112146,290.272888 1.224293,290.545746 1.168220,290.909302   C1.000000,291.000000 1.000000,290.500000 1.000000,290.250000  z"/>
<path fill="#F05D46" opacity="1.000000" stroke="none" d=" M70.020615,318.485687   C89.577789,317.976471 109.120369,317.955109 128.662720,317.877014   C135.520615,317.849579 137.794159,316.132629 139.945435,309.381348   C148.025864,309.010284 156.034653,308.995300 164.974976,308.983734   C197.883667,308.998901 229.860855,309.010681 261.906738,309.444092   C261.647278,312.626923 261.570221,315.446228 260.946808,318.139038   C258.474335,328.818848 253.755981,335.742615 240.977173,335.865845   C227.511719,335.995697 216.792572,340.873260 208.886734,351.653931   C196.005264,369.219513 199.783997,392.169403 217.186020,405.021454   C227.602585,412.714508 239.665024,413.453064 252.451599,412.942169   C277.768066,413.071594 302.623138,413.121155 327.478210,413.096527   C328.661591,413.095367 329.844330,412.436951 331.419495,412.049744   C337.614716,411.564728 341.412567,408.147003 344.176270,403.410980   C353.136383,388.056244 362.067261,372.683899 370.884155,357.246796   C372.028442,355.243347 373.167786,352.784515 373.058655,350.599060   C372.666138,342.736420 371.673859,334.905762 371.024780,327.053375   C369.643860,310.347229 368.338684,293.634857 366.996429,276.925507   C366.654175,272.664612 366.681488,268.329224 365.869843,264.158264   C361.345062,240.906189 373.621857,221.405014 395.230499,213.952744   C384.219604,214.027924 373.470154,215.878830 367.404785,205.081573   C370.011261,205.020538 372.173035,205.111786 374.316956,204.956573   C379.106384,204.609818 382.994934,200.560837 382.832123,196.232315   C382.653107,191.472458 379.139923,188.212570 374.083252,187.895966   C372.016998,187.766602 369.974060,187.264862 367.920532,186.932541   C371.010742,179.687302 377.887115,178.477997 384.218842,178.199799   C398.324219,177.580002 412.475616,178.006302 427.434937,178.006302   C421.338989,190.261200 415.532898,201.933426 409.514740,214.031998   C406.949005,214.031998 404.191925,214.031998 400.811798,214.031998   C401.719360,221.629883 402.519104,228.737686 403.428223,235.831482   C404.572021,244.756180 405.807953,253.669083 406.999359,262.587708   C408.298798,272.315002 409.635742,282.037567 410.876221,291.772430   C411.973999,300.387238 413.211884,308.994934 413.942596,317.643402   C415.214050,332.691467 426.095917,345.625488 440.751862,348.993713   C453.000824,351.808777 453.001892,351.808716 452.998810,364.101776   C452.998383,365.767273 452.980927,367.432800 452.440430,369.554199   C445.930237,370.006348 439.951019,369.998566 433.971771,369.999512   C408.977448,370.003448 386.217560,386.463409 377.773987,410.015259   C373.330414,422.409821 374.061462,435.111450 374.018036,447.833069   C371.649536,447.898041 369.281067,447.963013 366.007141,448.025421   C308.711029,448.005188 252.320312,447.983368 195.929596,447.978027   C191.608353,447.977631 187.287094,448.093475 182.965851,448.155304   C174.628159,448.110107 166.290466,448.064941 157.020828,448.023438   C144.239639,448.070221 132.390411,448.113373 120.109314,448.109924   C109.781891,448.081024 99.886322,448.098694 89.524185,448.077393   C77.030846,448.064026 65.004074,448.089630 52.977310,448.115234   C38.530540,448.115204 24.083775,448.115204 9.176353,448.115204   C8.623558,428.447113 8.512661,409.350769 18.287413,391.142578   C28.636461,375.336334 40.487629,361.901337 56.468658,351.994995   C70.910889,352.000671 84.884460,352.011749 98.858032,352.013641   C118.321274,352.016296 137.784592,352.040344 157.247711,351.991150   C162.197662,351.978638 165.221207,349.325165 165.883514,344.750488   C166.431656,340.964172 163.792419,336.997864 159.583160,335.802399   C157.552551,335.225708 155.351959,335.038361 153.227463,335.033142   C125.447014,334.964783 97.666412,334.960693 69.885849,334.940399   C69.925880,329.610657 69.965912,324.280945 70.020615,318.485687  M131.501312,387.002441   C138.816940,387.002441 146.132553,387.002441 153.448181,387.002441   C166.420258,387.002441 166.304840,387.004486 166.077148,374.153107   C166.018204,370.826080 164.902466,369.901886 161.715103,369.941345   C149.912155,370.087463 138.106308,369.998932 126.301559,369.998810   C113.007004,369.998688 113.080215,369.994141 113.941040,383.597137   C114.106522,386.212097 115.024673,387.096069 117.534210,387.029785   C121.854019,386.915741 126.179092,387.000885 131.501312,387.002441  M126.511734,404.986572   C113.556854,404.986572 113.676292,404.984314 113.919060,417.880371   C113.982491,421.250122 115.173157,422.092255 118.319290,422.054688   C130.123657,421.913788 141.930710,421.998657 153.736755,421.998749   C166.311813,421.998871 166.173920,421.999725 166.086334,409.359711   C166.061310,405.746124 164.781128,404.877563 161.429581,404.925385   C150.124680,405.086731 138.816071,404.986664 126.511734,404.986572  z"/>
<path fill="#8C563B" opacity="1.000000" stroke="none" d=" M190.882507,273.943512   C184.811630,270.782837 178.481796,268.203064 173.910934,262.574158   C169.090393,256.637756 166.257690,250.174698 165.958893,242.558487   C165.935226,241.955246 165.528992,241.366989 165.690521,240.377747   C187.525253,239.985245 208.970062,240.013901 230.414536,239.940887   C232.294617,239.934494 234.172424,239.261276 236.514099,238.941589   C245.307373,238.990265 253.639450,238.891541 261.967957,239.022003   C278.388489,239.279221 294.871155,238.876190 311.209137,240.207092   C329.100800,241.664566 339.471497,259.446838 335.215973,276.087372   C332.461212,286.859467 327.928772,297.193481 323.960022,307.635254   C315.035400,331.115753 305.965820,354.541138 296.493103,378.055542   C284.361542,378.069885 272.692108,378.017670 261.022339,377.579346   C272.365295,343.272308 283.708557,309.351379 295.189453,275.018921   C280.394653,275.018921 266.242584,275.018921 251.616257,275.012421   C231.055481,274.651794 210.968994,274.297638 190.882507,273.943512  z"/>
<path fill="#F05D46" opacity="1.000000" stroke="none" d=" M136.449158,266.007568   C116.090134,266.038452 96.152664,265.967438 76.215187,265.960602   C55.110065,265.953369 34.004925,266.007172 12.432673,266.097900   C8.594090,266.439117 8.986006,264.108093 8.989180,261.954407   C9.016708,243.269928 9.019634,224.585419 9.560907,205.444458   C53.331921,204.986420 96.571907,204.984863 139.811890,204.983307   C139.862717,224.276550 139.876099,243.570053 140.011429,262.862701   C140.028458,265.291687 139.192352,266.210297 136.449158,266.007568  z"/>
<path fill="#F05D46" opacity="1.000000" stroke="none" d=" M236.100464,169.963028   C261.402527,169.979813 286.704590,169.996597 312.530457,170.505569   C313.012268,182.303848 312.970276,193.609940 312.465393,204.951050   C286.700989,205.003357 261.399475,205.020660 235.623322,205.026031   C227.318161,205.009125 219.474686,205.286407 211.660416,204.927734   C201.880951,204.478882 193.367828,200.595749 189.779648,191.126633   C184.856735,178.135239 181.198944,164.662689 177.057129,151.378189   C175.873520,147.581879 174.857727,143.731857 173.822403,139.890991   C169.710617,124.637131 173.041763,117.097115 187.387451,109.969574   C191.529861,109.943512 195.265244,109.977608 199.217270,110.277481   C201.790253,112.024742 204.273514,113.339417 206.479828,115.018082   C213.934875,120.690269 214.234436,129.793716 216.876694,137.682785   C220.441299,148.325714 223.391266,159.174484 226.613388,169.963028   C230.113907,169.963028 233.107178,169.963028 236.100464,169.963028  z"/>
<path fill="#FEC8A3" opacity="1.000000" stroke="none" d=" M199.000626,110.011703   C195.265244,109.977608 191.529861,109.943512 186.923676,109.911865   C179.051315,109.952209 172.049744,109.990097 165.048172,110.027985   C165.060669,89.926834 165.073166,69.825684 165.618271,49.291374   C189.794388,48.951469 213.437897,49.044731 237.081421,49.137993   C241.905334,56.747692 246.728943,64.357597 251.553787,71.966713   C251.975784,72.632202 252.405930,73.292503 253.367126,74.786415   C247.339661,74.786415 242.022415,74.786415 236.027512,74.786415   C236.027512,86.678696 236.027512,97.887482 235.527252,109.491058   C223.018188,109.927811 211.009415,109.969757 199.000626,110.011703  z"/>
<path fill="#D64D37" opacity="1.000000" stroke="none" d=" M165.027634,110.495163   C172.049744,109.990097 179.051315,109.952209 186.516663,109.972031   C173.041763,117.097115 169.710617,124.637131 173.822403,139.890991   C174.857727,143.731857 175.873520,147.581879 177.057129,151.378189   C181.198944,164.662689 184.856735,178.135239 189.779648,191.126633   C193.367828,200.595749 201.880951,204.478882 211.660416,204.927734   C219.474686,205.286407 227.318161,205.009125 235.581787,205.490204   C236.027054,216.943451 236.039169,227.920624 236.051285,238.897781   C234.172424,239.261276 232.294617,239.934494 230.414536,239.940887   C208.970062,240.013901 187.525253,239.985245 165.622833,239.979660   C165.110092,208.761017 165.048828,177.546478 165.003143,146.331894   C164.985901,134.542068 165.004730,122.752190 165.027634,110.495163  z"/>
<path fill="#F05D46" opacity="1.000000" stroke="none" d=" M121.989471,67.012375   C117.240982,67.999641 112.238518,68.346474 107.796974,70.107773   C98.609428,73.751122 89.748207,73.873146 80.669044,70.064926   C77.263664,68.636543 73.652687,67.698334 70.181030,66.551704   C70.181030,49.018566 70.181030,31.744684 70.181030,13.592914   C73.595268,14.568346 76.775856,15.099486 79.633156,16.362169   C89.276848,20.623846 98.619499,20.822443 108.455460,16.475945   C112.757149,14.575036 117.961533,14.438399 122.797943,14.099948   C128.248535,13.718516 133.746399,14.012125 139.957855,14.012125   C139.957855,31.177225 139.957855,48.073696 139.482483,65.496613   C133.334579,66.352829 127.662025,66.682602 121.989471,67.012375  z"/>
<path fill="#F05D46" opacity="1.000000" stroke="none" d=" M9.169399,188.020309   C9.002158,181.482178 8.364167,175.029984 12.316930,168.982452   C16.082050,163.222000 21.332960,161.060822 27.674360,161.041321   C58.797417,160.945587 89.920906,160.990051 121.833275,161.154755   C131.276352,162.361984 136.982269,167.046051 139.844299,175.247787   C139.880707,179.196396 139.917099,183.144989 139.434631,187.545898   C95.666969,188.005569 52.418186,188.012939 9.169399,188.020309  z"/>
<path fill="#F05E46" opacity="1.000000" stroke="none" d=" M237.541595,49.081123   C213.437897,49.044731 189.794388,48.951469 165.702484,48.815163   C164.944275,37.440342 166.206833,26.735054 173.782074,17.323364   C180.279526,9.250727 195.164642,3.096463 205.313034,5.123677   C216.436707,7.345715 225.480606,12.433513 231.064743,22.633152   C232.453003,25.168842 233.452393,27.917429 234.793488,30.934860   C246.360184,30.934860 258.304504,30.934860 270.623749,30.934860   C270.623749,36.904198 270.623749,42.617371 270.623749,49.024246   C259.809265,49.024246 248.905518,49.024246 237.541595,49.081123  z"/>
<path fill="#734730" opacity="1.000000" stroke="none" d=" M190.429321,273.968323   C210.968994,274.297638 231.055481,274.651794 251.671341,275.353149   C258.087830,279.156555 261.558685,284.303619 261.921478,291.082977   C262.240448,297.044250 261.891815,303.041229 261.838013,309.022461   C229.860855,309.010681 197.883667,308.998901 165.439743,308.936218   C165.312424,302.336517 165.587753,295.783600 166.006119,289.239838   C166.649384,279.178345 175.325409,273.906494 183.514252,273.996094   C185.667938,274.019653 187.822159,273.995392 190.429321,273.968323  z"/>
<path fill="#D64D37" opacity="1.000000" stroke="none" d=" M9.106882,188.482788   C52.418186,188.012939 95.666969,188.005569 139.373016,188.003174   C139.876663,193.359329 139.923065,198.710480 139.890686,204.522476   C96.571907,204.984863 53.331921,204.986420 9.635288,204.979218   C9.133883,199.628723 9.089124,194.286987 9.106882,188.482788  z"/>
<path fill="#D64D37" opacity="1.000000" stroke="none" d=" M374.480164,447.903076   C374.061462,435.111450 373.330414,422.409821 377.773987,410.015259   C386.217560,386.463409 408.977448,370.003448 433.971771,369.999512   C439.951019,369.998566 445.930237,370.006348 452.366211,370.018738   C452.880951,372.377777 452.938965,374.728210 453.041687,377.516846   C452.732483,378.666840 452.145020,379.352234 452.061035,380.094574   C451.279633,386.998871 451.278290,386.625275 444.523376,387.099945   C436.501038,387.663696 428.386780,388.320374 420.567963,390.075317   C406.111816,393.320099 392.052521,411.759094 392.002533,426.478455   C391.979401,433.287750 391.987061,440.097168 391.975220,447.363098   C386.293884,447.870758 380.618103,447.921906 374.480164,447.903076  z"/>
<path fill="#DEDEDE" opacity="1.000000" stroke="none" d=" M139.906464,174.763123   C136.982269,167.046051 131.276352,162.361984 122.299103,161.117722   C121.983284,129.923157 121.990677,98.935402 121.993774,67.480011   C127.662025,66.682602 133.334579,66.352829 139.465210,65.958267   C139.938400,102.021812 139.953506,138.150131 139.906464,174.763123  z"/>
<path fill="#D64D37" opacity="1.000000" stroke="none" d=" M199.217270,110.277489   C211.009415,109.969757 223.018188,109.927811 235.486664,109.960396   C235.969360,129.701508 235.992371,149.368103 236.057922,169.498856   C233.107178,169.963028 230.113907,169.963028 226.613388,169.963028   C223.391266,159.174484 220.441299,148.325714 216.876694,137.682785   C214.234436,129.793716 213.934875,120.690269 206.479828,115.018082   C204.273514,113.339417 201.790253,112.024742 199.217270,110.277489  z"/>
<path fill="#FEC8A2" opacity="1.000000" stroke="none" d=" M312.928284,204.916016   C312.970276,193.609940 313.012268,182.303848 312.993896,170.538147   C317.910950,170.053436 322.888367,170.010529 327.865753,170.006653   C340.921661,169.996490 345.635376,173.673584 348.574707,186.803040   C347.617798,195.996658 342.956116,201.683105 334.597321,204.971649   C327.063202,205.001892 319.995728,204.958954 312.928284,204.916016  z"/>
<path fill="#8D573C" opacity="1.000000" stroke="none" d=" M335.063995,204.898483   C342.956116,201.683105 347.617798,195.996658 348.750610,187.135498   C355.028412,186.919525 361.014160,186.955551 367.460205,186.962067   C369.974060,187.264862 372.016998,187.766602 374.083252,187.895966   C379.139923,188.212570 382.653107,191.472458 382.832123,196.232315   C382.994934,200.560837 379.106384,204.609818 374.316956,204.956573   C372.173035,205.111786 370.011261,205.020538 366.939209,205.029724   C355.701904,204.978363 345.382935,204.938416 335.063995,204.898483  z"/>
<path fill="#734730" opacity="1.000000" stroke="none" d=" M399.986755,448.573303   C403.549500,447.424896 407.306427,447.219635 410.655853,445.944275   C418.057983,443.125702 426.024323,440.867065 432.383453,436.413666   C447.953125,425.510071 464.889313,421.001160 483.599396,421.982117   C486.090790,422.112701 488.594086,422.016846 491.559021,422.068878   C500.509491,432.574310 505.422455,444.502380 504.905151,458.004639   C503.968689,482.445160 487.636292,503.481934 461.878998,508.092407   C438.693970,512.242432 418.147797,502.037384 406.452332,482.681763   C402.356750,475.903778 399.932770,468.201355 399.994354,460.010834   C400.021881,456.351074 399.997101,452.690948 399.986755,448.573303  M458.059143,472.921844   C466.232239,469.021637 470.420227,462.465332 469.501740,455.008606   C468.275208,445.050842 459.331268,437.893829 449.997833,439.401398   C439.912201,441.030457 433.205536,450.405792 435.235413,460.037933   C437.347748,470.061096 446.841248,475.686890 458.059143,472.921844  z"/>
<path fill="#DEDEDE" opacity="1.000000" stroke="none" d=" M183.021698,448.517883   C187.287094,448.093475 191.608353,447.977631 195.929596,447.978027   C252.320312,447.983368 308.711029,448.005188 365.568237,448.092041   C360.478516,467.382660 347.606354,478.629272 328.240356,482.729187   C326.637665,483.068481 324.932037,482.989197 323.274170,482.989899   C291.296143,483.003510 259.318115,483.000366 227.340103,482.999878   C207.553558,482.999603 190.254776,470.492493 184.046127,451.702545   C183.734116,450.758270 183.400894,449.820984 183.021698,448.517883  z"/>
<path fill="#734730" opacity="1.000000" stroke="none" d=" M52.986839,448.572937   C65.004074,448.089630 77.030846,448.064026 89.428207,448.439331   C86.379738,456.969360 87.789291,464.503693 93.695198,469.667328   C99.414009,474.667419 107.443092,475.440460 114.048386,471.626953   C121.817116,467.141754 124.150726,458.706055 120.541176,448.156525   C132.390411,448.113373 144.239639,448.070221 156.555786,448.071106   C158.680786,457.643921 157.571777,466.864227 154.065079,475.855591   C147.278595,493.256470 134.782532,504.047424 116.559311,507.978058   C99.133812,511.736603 83.206902,507.809692 69.955254,496.159332   C59.776272,487.210419 53.819530,475.406372 53.035557,461.517487   C52.801315,457.367706 52.997429,453.193573 52.986839,448.572937  z"/>
<path fill="#D64D37" opacity="1.000000" stroke="none" d=" M69.433426,334.965729   C97.666412,334.960693 125.447014,334.964783 153.227463,335.033142   C155.351959,335.038361 157.552551,335.225708 159.583160,335.802399   C163.792419,336.997864 166.431656,340.964172 165.883514,344.750488   C165.221207,349.325165 162.197662,351.978638 157.247711,351.991150   C137.784592,352.040344 118.321274,352.016296 98.858032,352.013641   C84.884460,352.011749 70.910889,352.000671 56.432983,351.631714   C54.938263,348.476379 53.947872,345.683044 52.957485,342.889709   C54.010548,336.979614 56.226807,335.050812 62.049068,335.002380   C64.359581,334.983185 66.670341,334.993958 69.433426,334.965729  z"/>
<path fill="#C44639" opacity="1.000000" stroke="none" d=" M52.493839,342.936707   C53.947872,345.683044 54.938263,348.476379 55.964325,351.633026   C40.487629,361.901337 28.636461,375.336334 18.444334,390.810181   C18.155970,375.189789 18.155970,359.408142 18.155970,342.983704   C29.532549,342.983704 40.781372,342.983704 52.493839,342.936707  z"/>
<path fill="none" opacity="1.000000" stroke="none" d=" M40.000256,283.999695   C65.949142,283.999695 91.398819,284.095398 116.846352,283.905396   C121.080444,283.873779 122.169296,285.191681 122.092758,289.269012   C121.891388,299.996918 122.072060,300.000275 111.334549,300.000275   C103.184227,300.000275 95.008018,299.589050 86.889877,300.100189   C75.729988,300.802826 65.229202,298.417450 54.729080,295.116302   C43.245075,291.505829 31.624931,288.328400 20.138065,283.999695   C26.592150,283.999695 33.046234,283.999695 40.000256,283.999695  z"/>
<path fill="none" opacity="1.000000" stroke="none" d=" M334.597321,204.971649   C345.382935,204.938416 355.701904,204.978363 366.486389,205.070160   C373.470154,215.878830 384.219604,214.027924 395.230499,213.952744   C373.621857,221.405014 361.345062,240.906189 365.869843,264.158264   C366.681488,268.329224 366.654175,272.664612 366.996429,276.925507   C368.338684,293.634857 369.643860,310.347229 371.024780,327.053375   C371.673859,334.905762 372.666138,342.736420 373.058655,350.599060   C373.167786,352.784515 372.028442,355.243347 370.884155,357.246796   C362.067261,372.683899 353.136383,388.056244 344.176270,403.410980   C341.412567,408.147003 337.614716,411.564728 331.409393,411.614197   C330.702362,393.395050 316.259918,379.303528 296.955231,377.988953   C305.965820,354.541138 315.035400,331.115753 323.960022,307.635254   C327.928772,297.193481 332.461212,286.859467 335.215973,276.087372   C339.471497,259.446838 329.100800,241.664566 311.209137,240.207092   C294.871155,238.876190 278.388489,239.279221 261.967957,239.022003   C253.639450,238.891541 245.307373,238.990265 236.514099,238.941589   C236.039169,227.920624 236.027054,216.943451 236.056458,205.502121   C261.399475,205.020660 286.700989,205.003357 312.465393,204.951050   C319.995728,204.958954 327.063202,205.001892 334.597321,204.971649  z"/>
<path fill="none" opacity="1.000000" stroke="none" d=" M261.906738,309.444092   C261.891815,303.041229 262.240448,297.044250 261.921478,291.082977   C261.558685,284.303619 258.087830,279.156555 252.145630,275.359619   C266.242584,275.018921 280.394653,275.018921 295.189453,275.018921   C283.708557,309.351379 272.365295,343.272308 260.956390,377.966125   C257.923889,390.108612 254.957077,401.478210 251.990234,412.847778   C239.665024,413.453064 227.602585,412.714508 217.186020,405.021454   C199.783997,392.169403 196.005264,369.219513 208.886734,351.653931   C216.792572,340.873260 227.511719,335.995697 240.977173,335.865845   C253.755981,335.742615 258.474335,328.818848 260.946808,318.139038   C261.570221,315.446228 261.647278,312.626923 261.906738,309.444092  z"/>
<path fill="#DEDDDD" opacity="1.000000" stroke="none" d=" M252.451599,412.942169   C254.957077,401.478210 257.923889,390.108612 260.956726,378.352234   C272.692108,378.017670 284.361542,378.069885 296.493103,378.055542   C316.259918,379.303528 330.702362,393.395050 331.017273,411.649048   C329.844330,412.436951 328.661591,413.095367 327.478210,413.096527   C302.623138,413.121155 277.768066,413.071594 252.451599,412.942169  z"/>
<path fill="#D64D37" opacity="1.000000" stroke="none" d=" M131.001633,387.002441   C126.179092,387.000885 121.854019,386.915741 117.534210,387.029785   C115.024673,387.096069 114.106522,386.212097 113.941040,383.597137   C113.080215,369.994141 113.007004,369.998688 126.301559,369.998810   C138.106308,369.998932 149.912155,370.087463 161.715103,369.941345   C164.902466,369.901886 166.018204,370.826080 166.077148,374.153107   C166.304840,387.004486 166.420258,387.002441 153.448181,387.002441   C146.132553,387.002441 138.816940,387.002441 131.001633,387.002441  z"/>
<path fill="#D64D37" opacity="1.000000" stroke="none" d=" M127.010300,404.986572   C138.816071,404.986664 150.124680,405.086731 161.429581,404.925385   C164.781128,404.877563 166.061310,405.746124 166.086334,409.359711   C166.173920,421.999725 166.311813,421.998871 153.736755,421.998749   C141.930710,421.998657 130.123657,421.913788 118.319290,422.054688   C115.173157,422.092255 113.982491,421.250122 113.919060,417.880371   C113.676292,404.984314 113.556854,404.986572 127.010300,404.986572  z"/>
<path fill="#DDDDDC" opacity="1.000000" stroke="none" d=" M120.109314,448.109924   C124.150726,458.706055 121.817116,467.141754 114.048386,471.626953   C107.443092,475.440460 99.414009,474.667419 93.695198,469.667328   C87.789291,464.503693 86.379738,456.969360 89.894775,448.478302   C99.886322,448.098694 109.781891,448.081024 120.109314,448.109924  z"/>
<path fill="#DCDBDB" opacity="1.000000" stroke="none" d=" M457.667053,473.010132   C446.841248,475.686890 437.347748,470.061096 435.235413,460.037933   C433.205536,450.405792 439.912201,441.030457 449.997833,439.401398   C459.331268,437.893829 468.275208,445.050842 469.501740,455.008606   C470.420227,462.465332 466.232239,469.021637 457.667053,473.010132  z"/>
</svg>